<svg width="129" height="66" viewBox="0 0 129 66" fill="none" xmlns="http://www.w3.org/2000/svg">
<path d="M95.4398 0.0580928C96.7869 0.197529 98.3073 0.639079 99.5445 1.24911C101.666 2.3007 103.435 3.8926 107.725 8.62764C110.87 12.0961 112.784 13.903 114.634 15.1347C116.842 16.6162 119.131 17.2785 121.369 17.0868C123.265 16.9241 125.115 16.4128 127.208 15.4658C128.601 14.8384 129 14.7047 129 14.8674C129 15.1114 125.364 23.1639 116.813 41.8542L114.449 47.025L113.558 47.5014C110.517 49.1398 109.199 49.4361 105.297 49.3664C103.412 49.3315 103.21 49.2967 101.996 48.797C99.0531 47.5827 97.3361 46.1535 92.8672 41.1919C90.2309 38.2695 88.6353 36.6776 87.0397 35.3995C85.1492 33.8715 83.3281 32.9651 81.4203 32.5817C80.8711 32.4771 80.5647 32.4539 79.6859 32.4539C78.4661 32.4539 77.6683 32.5526 76.4542 32.8606C74.9106 33.244 73.87 33.6507 72.2281 34.4873L71.2684 34.9754L70.118 37.4852C69.4878 38.868 68.2853 41.5056 67.4412 43.3415C59.1047 61.5729 57.2258 65.6398 57.0697 65.8083C57.0003 65.878 56.8962 65.9535 56.8384 65.9768C56.6419 66.0349 55 65.5643 55 65.4423C55 65.3435 58.1566 58.36 61.8103 50.4005C62.9203 47.972 64.8281 43.8121 66.0422 41.1629C67.2562 38.5077 68.5455 35.7016 68.9039 34.9173C69.4705 33.6739 70.5978 31.2338 74.5406 22.6875C75.0436 21.6011 76.5294 18.3708 77.8533 15.5123C81.3683 7.89559 84.4497 1.28397 84.5884 1.0632C84.6231 1.0051 84.7214 1.0051 85.0047 1.05158C85.8603 1.18521 86.45 1.48151 86.45 1.78362C86.45 1.92306 86.4673 1.92887 86.6639 1.90563C86.7853 1.8882 87.323 1.68485 87.8548 1.45827C88.3925 1.23168 89.0862 0.952811 89.3984 0.842424C90.1384 0.58679 91.4566 0.261438 92.2312 0.145241C92.9712 0.0348534 94.7345 -0.0116255 95.4398 0.0580928ZM92.9539 0.435734C90.1037 0.929572 87.7045 1.76619 86.8142 2.58538C86.1841 3.16056 85.8314 3.76478 84.7561 6.13521C83.6923 8.47658 83.6114 8.71478 83.9178 8.62764C83.993 8.6044 84.3861 8.41848 84.8023 8.21514C86.5483 7.35528 89.0284 6.76848 91.1733 6.69876L92.2833 6.6639L93.1331 4.76989C94.035 2.75968 94.6941 1.21425 94.8559 0.708797C95.012 0.232389 94.9831 0.209149 94.353 0.249818C94.0639 0.267248 93.428 0.354396 92.9539 0.435734ZM101.874 3.64278C101.603 3.96813 100.892 5.39154 99.6602 8.0757C99.3133 8.82517 99.0242 9.45264 99.0127 9.46426C99.0069 9.47587 98.8855 9.41197 98.7525 9.32482C96.5903 7.88397 93.9598 6.74524 92.7978 6.73943C92.4914 6.73943 92.4567 6.75105 92.3237 6.93116C92.0058 7.34947 90.2483 11.1375 89.8667 12.2297C89.5892 13.0141 89.5834 13.0025 90.4102 13.2232C92.422 13.7519 93.3355 14.1528 95.0756 15.2741C95.9312 15.8261 96.0584 15.8725 96.1856 15.675C96.2377 15.5937 96.6712 14.6699 97.1511 13.6183C98.2495 11.2072 98.9722 9.70246 99.0358 9.70246C99.1225 9.70246 99.7295 10.1963 100.319 10.7482C100.643 11.0503 101.447 11.8753 102.106 12.5783C103.562 14.1238 104.366 14.9313 104.464 14.9313C104.505 14.9313 104.592 14.8442 104.655 14.7396C104.921 14.3039 106.679 10.4577 106.968 9.68503C107.037 9.49911 107.089 9.21443 107.089 9.04014C107.089 8.76126 107.06 8.69154 106.835 8.38362C106.008 7.28556 102.296 3.54401 102.025 3.54401C101.99 3.54401 101.921 3.59049 101.874 3.64278ZM87.3056 13.0489C85.5597 13.293 83.5594 13.8623 81.9984 14.5653C81.5359 14.7745 81.0387 14.9952 80.8884 15.0591L80.6225 15.1753L79.6859 17.2146C78.7262 19.3062 77.94 21.0665 77.8648 21.3106C77.8128 21.4907 77.807 21.4907 79.1656 20.9155C81.4145 19.9627 82.7211 19.6315 85.207 19.3991C85.9066 19.3294 86.4847 19.2713 86.4847 19.2655C86.5136 19.2423 87.9705 16.0526 88.3578 15.1637C88.7741 14.2283 89.1672 13.2465 89.1672 13.1535C89.1672 13.1361 89.0805 13.0896 88.9764 13.0431C88.7278 12.9327 88.1034 12.9327 87.3056 13.0489ZM112.674 14.9778C112.593 15.1347 112.136 16.1224 111.656 17.1739C110.5 19.7012 110.026 20.6831 109.98 20.6831C109.957 20.6831 109.829 20.6076 109.691 20.5146C109.17 20.166 108.187 19.2132 106.713 17.6329C105.881 16.7382 105.042 15.8667 104.857 15.6924C104.545 15.4019 104.516 15.3903 104.441 15.4891C104.32 15.6518 103.996 16.3141 103.273 17.8653C102.447 19.6373 101.759 21.0201 101.614 21.2002L101.499 21.3396L101.221 21.084C101.071 20.9445 100.406 20.2532 99.7527 19.556C98.475 18.1849 97.2725 17.0403 96.5498 16.4942C96.3012 16.3025 96.0758 16.1514 96.0527 16.1514C96.0006 16.1514 95.7694 16.6278 94.8906 18.5334C94.1044 20.2474 93.4048 21.6998 93.2141 22.0077L93.0984 22.1995L92.9077 22.1007C92.8094 22.0484 92.3989 21.7928 92 21.5313C90.387 20.4856 89.0978 19.9511 87.2941 19.5792C86.9819 19.5153 86.6812 19.463 86.6292 19.463C86.5194 19.463 86.2245 20.044 85.0914 22.5132C84.3167 24.2039 83.9641 25.0986 83.9236 25.4762C83.8831 25.8887 84.0161 25.9991 84.652 26.0514C85.6695 26.1327 87.4444 26.8938 89.1672 27.9745C89.8783 28.4218 90.1673 28.5845 90.2541 28.5845C90.3119 28.5845 90.9073 27.3063 92.2717 24.262C92.7284 23.2394 93.11 22.3912 93.1273 22.3796C93.1794 22.3215 94.3125 23.2975 95.0698 24.0528C95.4977 24.4827 96.1278 25.1741 96.4631 25.5924C97.0875 26.3709 98.4114 27.713 98.5502 27.713C98.66 27.713 99.1341 26.8357 99.8162 25.3717C100.643 23.5822 101.441 21.9613 101.516 21.8974C101.632 21.7986 102.204 22.3389 103.782 24.0412C105.655 26.0572 106.864 27.2076 107.02 27.1088C107.083 27.0681 107.985 25.1799 109.014 22.9199C109.812 21.1653 109.841 21.1188 110.014 21.1014C110.147 21.0898 110.39 21.206 111.107 21.6417C111.616 21.9555 112.286 22.3331 112.599 22.4958C113.772 23.0826 115.212 23.5996 115.905 23.681C116.38 23.7333 116.478 23.7914 116.432 24.0005C116.385 24.2562 115.894 25.4472 115.194 27.0158C114.483 28.6136 114.027 29.7871 114.027 30.0021C114.027 30.2345 114.212 30.2868 114.923 30.281C116.53 30.2636 119.831 29.3979 121.473 28.5613C122.155 28.2127 122.311 28.0616 122.733 27.3528C123.647 25.8074 125.092 22.7921 125.265 22.0542C125.306 21.8915 125.306 21.8915 125.086 21.9322C124.965 21.9496 124.323 22.1878 123.652 22.4551C121.444 23.344 119.947 23.7042 117.888 23.8495C117.252 23.8959 116.946 23.8611 116.894 23.7275C116.83 23.559 117.42 22.1588 118.854 19.068C119.224 18.2604 119.525 17.5864 119.513 17.5748C119.501 17.5632 118.964 17.4238 118.322 17.2611C116.576 16.8195 116.067 16.6278 115.067 16.0062C113.957 15.3206 112.911 14.6989 112.865 14.6989C112.836 14.6989 112.749 14.8268 112.674 14.9778ZM80.5531 25.9991C79.3391 26.1908 77.8533 26.6208 76.46 27.1843C75.5986 27.5329 75.0609 27.8292 74.8586 28.0732C74.5406 28.4509 72.2917 33.2382 72.1877 33.7553L72.1587 33.9296L72.3784 33.8482C72.5056 33.8018 72.9797 33.61 73.4364 33.4125C74.4019 33 75.2691 32.7095 76.2403 32.4771C77.333 32.2099 78.0556 32.1169 79.4142 32.0762L80.6745 32.0414L82.0273 29.0783C82.7731 27.4516 83.3859 26.0863 83.3859 26.0514C83.3859 25.9004 83.0622 25.8539 82.1141 25.8771C81.588 25.8887 80.8884 25.9468 80.5531 25.9991ZM106.777 27.8408C106.58 28.2069 105.401 30.7748 104.603 32.5933C104.372 33.122 104.175 33.5636 104.164 33.5752C104.123 33.6217 103.112 32.7153 102.4 31.9949C101.978 31.5766 100.972 30.5134 100.169 29.6419C99.3595 28.7762 98.6889 28.0616 98.6716 28.0616C98.6311 28.0616 98.1397 29.0842 97.18 31.1641C96.1105 33.4706 95.7462 34.2201 95.6942 34.2201C95.6769 34.2201 95.0467 33.5577 94.2952 32.7502C92.4914 30.8039 91.312 29.6709 90.5084 29.1132C90.1327 28.8518 90.1962 28.7472 88.7567 31.9252C88.0341 33.5229 87.4386 34.8592 87.4386 34.8882C87.4328 34.9231 87.9647 35.4401 88.6122 36.0386C89.2597 36.637 90.1789 37.5375 90.653 38.0371C92.3411 39.844 92.7978 40.2856 92.8845 40.2158C93.0117 40.1113 93.8731 38.3799 94.8039 36.3697C95.2664 35.3646 95.6711 34.5164 95.6942 34.4931C95.7231 34.4641 96.4862 35.2542 97.3939 36.2419C99.8336 38.897 100.909 39.8731 101.181 39.6988C101.314 39.6174 101.73 38.8099 102.788 36.5731C103.776 34.4873 104.123 33.8134 104.204 33.8134C104.233 33.8134 104.736 34.1097 105.314 34.4757C106.956 35.504 107.575 35.7887 109.13 36.2303C110.211 36.5382 110.673 36.7067 110.673 36.7822C110.673 36.8752 110.251 37.8454 109.257 40.0299C108.193 42.3655 107.945 42.9407 107.979 42.9755C108.049 43.0452 108.899 43.0569 109.604 42.9988C111.616 42.8245 112.899 42.4584 115.616 41.279C116.189 41.035 116.686 40.8026 116.721 40.762C116.784 40.7039 117.264 39.6755 118.611 36.7183C119.322 35.1438 119.582 34.5512 119.553 34.528C119.542 34.5106 119.091 34.6849 118.553 34.9056C116.073 35.9456 115.09 36.2535 113.593 36.4627C112.882 36.5614 111.067 36.6079 110.986 36.5266C110.928 36.4685 111.043 36.1954 112.263 33.4938C112.847 32.2157 113.396 30.9782 113.495 30.7516L113.674 30.3275L113.518 30.2461C113.431 30.1996 113.113 30.1125 112.812 30.0486C111.367 29.7349 109.818 29.0609 108.361 28.1197C107.656 27.6665 107.303 27.4864 107.106 27.4806C107.008 27.4806 106.933 27.5678 106.777 27.8408ZM100.949 40.5354C100.84 40.7852 100.209 42.1563 99.5503 43.5798C98.897 45.0032 98.3594 46.2 98.3594 46.229C98.3594 46.2813 99.4983 47.0018 100.498 47.5827C101.591 48.2218 103.21 48.8783 104.065 49.0352C104.898 49.1863 105.21 48.8783 106.002 47.1528C106.488 46.0954 107.395 43.9864 107.586 43.481C107.661 43.2776 107.708 43.0743 107.69 43.0278C107.65 42.9232 107.367 42.8187 107.112 42.8187C106.205 42.8187 103.915 41.8368 102.204 40.7097C101.695 40.3727 101.25 40.0938 101.215 40.0938C101.181 40.088 101.065 40.2914 100.949 40.5354Z" fill="white"/>
<path d="M33.5602 0.0580928C32.2131 0.197529 30.6927 0.639079 29.4555 1.24911C27.3338 2.3007 25.5647 3.8926 21.275 8.62764C18.13 12.0961 16.2164 13.903 14.3664 15.1347C12.158 16.6162 9.86859 17.2785 7.63125 17.0868C5.735 16.9241 3.885 16.4128 1.79219 15.4658C0.398906 14.8384 0 14.7047 0 14.8674C0 15.1114 3.63641 23.1639 12.1869 41.8542L14.5514 47.025L15.4417 47.5014C18.4827 49.1398 19.8008 49.4361 23.7031 49.3664C25.5878 49.3315 25.7902 49.2967 27.0042 48.797C29.9469 47.5827 31.6639 46.1535 36.1328 41.1919C38.7691 38.2695 40.3647 36.6776 41.9603 35.3995C43.8508 33.8715 45.6719 32.9651 47.5797 32.5817C48.1289 32.4771 48.4353 32.4539 49.3141 32.4539C50.5339 32.4539 51.3317 32.5526 52.5458 32.8606C54.0894 33.244 55.13 33.6507 56.7719 34.4873L57.7316 34.9754L58.882 37.4852C59.5122 38.868 60.7147 41.5056 61.5588 43.3415C69.8953 61.5729 71.7742 65.6398 71.9303 65.8083C71.9997 65.878 72.1038 65.9535 72.1616 65.9768C72.3581 66.0349 74 65.5643 74 65.4423C74 65.3435 70.8434 58.36 67.1897 50.4005C66.0797 47.972 64.1719 43.8121 62.9578 41.1629C61.7438 38.5077 60.4545 35.7016 60.0961 34.9173C59.5295 33.6739 58.4022 31.2338 54.4594 22.6875C53.9564 21.6011 52.4706 18.3708 51.1467 15.5123C47.6317 7.89559 44.5503 1.28397 44.4116 1.0632C44.3769 1.0051 44.2786 1.0051 43.9953 1.05158C43.1397 1.18521 42.55 1.48151 42.55 1.78362C42.55 1.92306 42.5327 1.92887 42.3361 1.90563C42.2147 1.8882 41.677 1.68485 41.1452 1.45827C40.6075 1.23168 39.9138 0.952811 39.6016 0.842424C38.8616 0.58679 37.5434 0.261438 36.7688 0.145241C36.0288 0.0348534 34.2655 -0.0116255 33.5602 0.0580928ZM36.0461 0.435734C38.8963 0.929572 41.2955 1.76619 42.1858 2.58538C42.8159 3.16056 43.1686 3.76478 44.2439 6.13521C45.3077 8.47658 45.3886 8.71478 45.0822 8.62764C45.007 8.6044 44.6139 8.41848 44.1977 8.21514C42.4517 7.35528 39.9716 6.76848 37.8267 6.69876L36.7167 6.6639L35.8669 4.76989C34.965 2.75968 34.3059 1.21425 34.1441 0.708797C33.988 0.232389 34.0169 0.209149 34.647 0.249818C34.9361 0.267248 35.572 0.354396 36.0461 0.435734ZM27.1256 3.64278C27.3973 3.96813 28.1084 5.39154 29.3398 8.0757C29.6867 8.82517 29.9758 9.45264 29.9873 9.46426C29.9931 9.47587 30.1145 9.41197 30.2475 9.32482C32.4097 7.88397 35.0402 6.74524 36.2022 6.73943C36.5086 6.73943 36.5433 6.75105 36.6763 6.93116C36.9942 7.34947 38.7517 11.1375 39.1333 12.2297C39.4108 13.0141 39.4166 13.0025 38.5898 13.2232C36.578 13.7519 35.6645 14.1528 33.9244 15.2741C33.0688 15.8261 32.9416 15.8725 32.8144 15.675C32.7623 15.5937 32.3288 14.6699 31.8489 13.6183C30.7505 11.2072 30.0278 9.70246 29.9642 9.70246C29.8775 9.70246 29.2705 10.1963 28.6808 10.7482C28.357 11.0503 27.5534 11.8753 26.8944 12.5783C25.4375 14.1238 24.6339 14.9313 24.5356 14.9313C24.4952 14.9313 24.4084 14.8442 24.3448 14.7396C24.0789 14.3039 22.3214 10.4577 22.0323 9.68503C21.963 9.49911 21.9109 9.21443 21.9109 9.04014C21.9109 8.76126 21.9398 8.69154 22.1653 8.38362C22.992 7.28556 26.7036 3.54401 26.9753 3.54401C27.01 3.54401 27.0794 3.59049 27.1256 3.64278ZM41.6944 13.0489C43.4403 13.293 45.4406 13.8623 47.0016 14.5653C47.4641 14.7745 47.9613 14.9952 48.1116 15.0591L48.3775 15.1753L49.3141 17.2146C50.2738 19.3062 51.06 21.0665 51.1352 21.3106C51.1872 21.4907 51.193 21.4907 49.8344 20.9155C47.5855 19.9627 46.2789 19.6315 43.793 19.3991C43.0934 19.3294 42.5153 19.2713 42.5153 19.2655C42.4864 19.2423 41.0295 16.0526 40.6422 15.1637C40.2259 14.2283 39.8328 13.2465 39.8328 13.1535C39.8328 13.1361 39.9195 13.0896 40.0236 13.0431C40.2722 12.9327 40.8966 12.9327 41.6944 13.0489ZM16.3263 14.9778C16.4072 15.1347 16.8639 16.1224 17.3438 17.1739C18.5 19.7012 18.9741 20.6831 19.0203 20.6831C19.0434 20.6831 19.1706 20.6076 19.3094 20.5146C19.8297 20.166 20.8125 19.2132 22.2867 17.6329C23.1192 16.7382 23.9575 15.8667 24.1425 15.6924C24.4547 15.4019 24.4836 15.3903 24.5588 15.4891C24.6802 15.6518 25.0039 16.3141 25.7266 17.8653C26.5533 19.6373 27.2413 21.0201 27.3858 21.2002L27.5014 21.3396L27.7789 21.084C27.9292 20.9445 28.5941 20.2532 29.2473 19.556C30.525 18.1849 31.7275 17.0403 32.4502 16.4942C32.6988 16.3025 32.9242 16.1514 32.9473 16.1514C32.9994 16.1514 33.2306 16.6278 34.1094 18.5334C34.8956 20.2474 35.5952 21.6998 35.7859 22.0077L35.9016 22.1995L36.0923 22.1007C36.1906 22.0484 36.6011 21.7928 37 21.5313C38.613 20.4856 39.9022 19.9511 41.7059 19.5792C42.0181 19.5153 42.3188 19.463 42.3708 19.463C42.4806 19.463 42.7755 20.044 43.9086 22.5132C44.6833 24.2039 45.0359 25.0986 45.0764 25.4762C45.1169 25.8887 44.9839 25.9991 44.348 26.0514C43.3305 26.1327 41.5556 26.8938 39.8328 27.9745C39.1217 28.4218 38.8327 28.5845 38.7459 28.5845C38.6881 28.5845 38.0927 27.3063 36.7283 24.262C36.2716 23.2394 35.89 22.3912 35.8727 22.3796C35.8206 22.3215 34.6875 23.2975 33.9302 24.0528C33.5023 24.4827 32.8722 25.1741 32.5369 25.5924C31.9125 26.3709 30.5886 27.713 30.4498 27.713C30.34 27.713 29.8659 26.8357 29.1838 25.3717C28.357 23.5822 27.5592 21.9613 27.4841 21.8974C27.3684 21.7986 26.7961 22.3389 25.2178 24.0412C23.3447 26.0572 22.1364 27.2076 21.9803 27.1088C21.9167 27.0681 21.0148 25.1799 19.9858 22.9199C19.188 21.1653 19.1591 21.1188 18.9856 21.1014C18.8527 21.0898 18.6098 21.206 17.893 21.6417C17.3842 21.9555 16.7136 22.3331 16.4014 22.4958C15.2278 23.0826 13.7883 23.5996 13.0945 23.681C12.6205 23.7333 12.5222 23.7914 12.5684 24.0005C12.6147 24.2562 13.1061 25.4472 13.8056 27.0158C14.5167 28.6136 14.9734 29.7871 14.9734 30.0021C14.9734 30.2345 14.7884 30.2868 14.0773 30.281C12.4702 30.2636 9.16906 29.3979 7.52719 28.5613C6.845 28.2127 6.68891 28.0616 6.26688 27.3528C5.35344 25.8074 3.90813 22.7921 3.73469 22.0542C3.69422 21.8915 3.69422 21.8915 3.91391 21.9322C4.03531 21.9496 4.67703 22.1878 5.34766 22.4551C7.55609 23.344 9.05344 23.7042 11.1116 23.8495C11.7475 23.8959 12.0539 23.8611 12.1059 23.7275C12.1695 23.559 11.5798 22.1588 10.1461 19.068C9.77609 18.2604 9.47547 17.5864 9.48703 17.5748C9.49859 17.5632 10.0363 17.4238 10.678 17.2611C12.4239 16.8195 12.9327 16.6278 13.9328 16.0062C15.0428 15.3206 16.0892 14.6989 16.1355 14.6989C16.1644 14.6989 16.2511 14.8268 16.3263 14.9778ZM48.4469 25.9991C49.6609 26.1908 51.1467 26.6208 52.54 27.1843C53.4014 27.5329 53.9391 27.8292 54.1414 28.0732C54.4594 28.4509 56.7083 33.2382 56.8123 33.7553L56.8413 33.9296L56.6216 33.8482C56.4944 33.8018 56.0203 33.61 55.5636 33.4125C54.5981 33 53.7309 32.7095 52.7597 32.4771C51.667 32.2099 50.9444 32.1169 49.5858 32.0762L48.3255 32.0414L46.9727 29.0783C46.2269 27.4516 45.6141 26.0863 45.6141 26.0514C45.6141 25.9004 45.9378 25.8539 46.8859 25.8771C47.412 25.8887 48.1116 25.9468 48.4469 25.9991ZM22.2231 27.8408C22.4197 28.2069 23.5991 30.7748 24.3969 32.5933C24.6281 33.122 24.8247 33.5636 24.8363 33.5752C24.8767 33.6217 25.8884 32.7153 26.5995 31.9949C27.0216 31.5766 28.0275 30.5134 28.8311 29.6419C29.6405 28.7762 30.3111 28.0616 30.3284 28.0616C30.3689 28.0616 30.8603 29.0842 31.82 31.1641C32.8895 33.4706 33.2538 34.2201 33.3058 34.2201C33.3231 34.2201 33.9533 33.5577 34.7048 32.7502C36.5086 30.8039 37.688 29.6709 38.4916 29.1132C38.8673 28.8518 38.8038 28.7472 40.2433 31.9252C40.9659 33.5229 41.5614 34.8592 41.5614 34.8882C41.5672 34.9231 41.0353 35.4401 40.3878 36.0386C39.7403 36.637 38.8211 37.5375 38.347 38.0371C36.6589 39.844 36.2022 40.2856 36.1155 40.2158C35.9883 40.1113 35.1269 38.3799 34.1961 36.3697C33.7336 35.3646 33.3289 34.5164 33.3058 34.4931C33.2769 34.4641 32.5138 35.2542 31.6061 36.2419C29.1664 38.897 28.0911 39.8731 27.8194 39.6988C27.6864 39.6174 27.2702 38.8099 26.2122 36.5731C25.2236 34.4873 24.8767 33.8134 24.7958 33.8134C24.7669 33.8134 24.2639 34.1097 23.6858 34.4757C22.0439 35.504 21.4253 35.7887 19.8702 36.2303C18.7891 36.5382 18.3266 36.7067 18.3266 36.7822C18.3266 36.8752 18.7486 37.8454 19.743 40.0299C20.8067 42.3655 21.0553 42.9407 21.0206 42.9755C20.9513 43.0452 20.1014 43.0569 19.3961 42.9988C17.3842 42.8245 16.1008 42.4584 13.3836 41.279C12.8113 41.035 12.3141 40.8026 12.2794 40.762C12.2158 40.7039 11.7359 39.6755 10.3889 36.7183C9.67781 35.1438 9.41766 34.5512 9.44656 34.528C9.45813 34.5106 9.90906 34.6849 10.4467 34.9056C12.9269 35.9456 13.9097 36.2535 15.407 36.4627C16.1181 36.5614 17.9334 36.6079 18.0144 36.5266C18.0722 36.4685 17.9566 36.1954 16.7367 33.4938C16.1528 32.2157 15.6036 30.9782 15.5053 30.7516L15.3261 30.3275L15.4822 30.2461C15.5689 30.1996 15.8869 30.1125 16.1875 30.0486C17.6328 29.7349 19.1822 29.0609 20.6391 28.1197C21.3444 27.6665 21.697 27.4864 21.8936 27.4806C21.9919 27.4806 22.067 27.5678 22.2231 27.8408ZM28.0506 40.5354C28.1605 40.7852 28.7906 42.1563 29.4497 43.5798C30.103 45.0032 30.6406 46.2 30.6406 46.229C30.6406 46.2813 29.5017 47.0018 28.5016 47.5827C27.4089 48.2218 25.7902 48.8783 24.9345 49.0352C24.102 49.1863 23.7898 48.8783 22.9978 47.1528C22.5122 46.0954 21.6045 43.9864 21.4138 43.481C21.3386 43.2776 21.2923 43.0743 21.3097 43.0278C21.3502 42.9232 21.6334 42.8187 21.8878 42.8187C22.7955 42.8187 25.0848 41.8368 26.7961 40.7097C27.3048 40.3727 27.75 40.0938 27.7847 40.0938C27.8194 40.088 27.935 40.2914 28.0506 40.5354Z" fill="white"/>
</svg>
